<svg width="117" height="32" viewBox="0 0 117 32" fill="none" xmlns="http://www.w3.org/2000/svg">
<path d="M6 6.00004L5 7V13H16V18H5V32H0V4L4 0H18V6.00004H6Z" fill="black"/>
<path d="M20 7V3H24V7H20ZM20 32V10H24V32H20Z" fill="black"/>
<path d="M41 32H26V28H40L41 27V24L40 23.0002H29L26 20V14L30 10H44V14H32.0464L30 16V18L31 19H41.0464L45 23V28L41 32Z" fill="black"/>
<path d="M62 32H47V28H61L62 27V24L61 23.0002H50L47 20V14L51 10H65V14H53.0464L51 16V18L52 19H62.0464L66 23V28L62 32Z" fill="black"/>
<path d="M68 7V3H72V7H68ZM68 32V10H72V32H68Z" fill="black"/>
<path d="M90 32H78L74 28V14L78 10H90.0923L94 14V28L90 32ZM90.0923 16L89.0923 15H79.0923L78.0923 16V26L79.1846 27H89.0923L90.0923 26V16Z" fill="black"/>
<path d="M112 32L112 16.0045L111 15.0053L103 15.0048L101 16.0045L101 32L96 31.9995V10.0068H101V12.006L103 10L113 10.0068L117 13.999V32H112Z" fill="black"/>
</svg>
