<svg width="72" height="72" viewBox="0 0 72 72" fill="none" xmlns="http://www.w3.org/2000/svg">
<path d="M0 21.6C0 29.6028 4.35212 36.589 10.8187 40.3211C10.9133 37.5908 11.3656 34.9515 12.1301 32.4484C9.1087 29.8087 7.2 25.9273 7.2 21.6C7.2 13.6471 13.6471 7.2 21.6 7.2C25.9273 7.2 29.8087 9.1087 32.4484 12.1301C34.9515 11.3656 37.5908 10.9133 40.3211 10.8187C36.589 4.35212 29.6028 0 21.6 0C9.67065 0 0 9.67065 0 21.6Z" fill="black"/>
<path d="M21.6 43.2C33.5294 43.2 43.2 33.5294 43.2 21.6C43.2 20.3902 43.1005 19.2035 42.9093 18.0479C42.4103 18.0161 41.907 18 41.4 18C39.4366 18 37.5296 18.2418 35.7073 18.6973C35.8992 19.6349 36 20.6057 36 21.6C36 29.5529 29.5529 36 21.6 36C20.6057 36 19.6349 35.8992 18.6973 35.7073C18.2418 37.5296 18 39.4366 18 41.4C18 41.907 18.0161 42.4103 18.0479 42.9093C19.2035 43.1005 20.3902 43.2 21.6 43.2Z" fill="black"/>
<path d="M64.8 41.4C64.8 54.3235 54.3235 64.8 41.4 64.8C28.9836 64.8 18.8258 55.1294 18.0479 42.9093C15.4528 42.48 13.0139 41.588 10.8187 40.3211C10.8063 40.6792 10.8 41.0389 10.8 41.4C10.8 58.2999 24.5001 72 41.4 72C58.2999 72 72 58.2999 72 41.4C72 24.5001 58.2999 10.8 41.4 10.8C41.0389 10.8 40.6792 10.8063 40.3211 10.8187C41.588 13.0139 42.48 15.4528 42.9093 18.0479C55.1294 18.8258 64.8 28.9836 64.8 41.4Z" fill="black"/>
<path d="M32.4484 12.1301C22.7472 15.0933 15.0933 22.7472 12.1301 32.4484C13.9674 34.0535 16.2161 35.1995 18.6973 35.7073C20.7843 27.3573 27.3573 20.7843 35.7073 18.6973C35.1995 16.2161 34.0535 13.9674 32.4484 12.1301Z" fill="black"/>
</svg>
