<svg width="334" height="96" viewBox="0 0 334 96" fill="none" xmlns="http://www.w3.org/2000/svg">
<path d="M12 33.6C12 41.6028 16.3521 48.589 22.8187 52.3211C22.9133 49.5908 23.3656 46.9515 24.1301 44.4484C21.1087 41.8087 19.2 37.9273 19.2 33.6C19.2 25.6471 25.6471 19.2 33.6 19.2C37.9273 19.2 41.8087 21.1087 44.4484 24.1301C46.9515 23.3656 49.5908 22.9133 52.3211 22.8187C48.589 16.3521 41.6028 12 33.6 12C21.6706 12 12 21.6706 12 33.6Z" fill="black"/>
<path d="M33.6 55.2C45.5294 55.2 55.2 45.5294 55.2 33.6C55.2 32.3902 55.1005 31.2035 54.9093 30.0479C54.4103 30.0161 53.907 30 53.4 30C51.4366 30 49.5296 30.2418 47.7073 30.6973C47.8992 31.6349 48 32.6057 48 33.6C48 41.5529 41.5529 48 33.6 48C32.6057 48 31.6349 47.8992 30.6973 47.7073C30.2418 49.5296 30 51.4366 30 53.4C30 53.907 30.0161 54.4103 30.0479 54.9093C31.2035 55.1005 32.3902 55.2 33.6 55.2Z" fill="black"/>
<path d="M76.8 53.4C76.8 66.3235 66.3235 76.8 53.4 76.8C40.9836 76.8 30.8258 67.1294 30.0479 54.9093C27.4528 54.48 25.0139 53.588 22.8187 52.3211C22.8063 52.6792 22.8 53.0389 22.8 53.4C22.8 70.2999 36.5001 84 53.4 84C70.2999 84 84 70.2999 84 53.4C84 36.5001 70.2999 22.8 53.4 22.8C53.0389 22.8 52.6792 22.8063 52.3211 22.8187C53.588 25.0139 54.48 27.4528 54.9093 30.0479C67.1294 30.8258 76.8 40.9836 76.8 53.4Z" fill="black"/>
<path d="M44.4484 24.1301C34.7472 27.0933 27.0933 34.7472 24.1301 44.4484C25.9674 46.0535 28.2161 47.1995 30.6973 47.7073C32.7843 39.3573 39.3573 32.7843 47.7073 30.6973C47.1995 28.2161 46.0535 25.9674 44.4484 24.1301Z" fill="black"/>
<path d="M112 28.0001L110 30V42H132V52H110V80H100V24L108 16H136V28.0001H112Z" fill="black"/>
<path d="M140 30V22H148V30H140ZM140 80V36H148V80H140Z" fill="black"/>
<path d="M224 80H194V72H222L224 70V64L222 62.0004H200L194 56V44L202 36H230V44H206.093L202 48V52L204 54H224.093L232 62V72L224 80Z" fill="black"/>
<path d="M182 80H152V72H180L182 70V64L180 62.0004H158L152 56V44L160 36H188V44H164.093L160 48V52L162 54H182.093L190 62V72L182 80Z" fill="black"/>
<path d="M268 80H244L236 72V44L244 36H268.185L276 44V72L268 80ZM268.185 48L266.185 46H246.185L244.185 48V68L246.369 70H266.185L268.185 68V48Z" fill="black"/>
<path d="M312 80L312 48.009L310 46.0106L294 46.0096L290 48.009L290 80L280 79.999V36.0137H290V40.0119L294 36L314 36.0137L322 43.998V80H312Z" fill="black"/>
</svg>
