<svg width="173" height="48" viewBox="0 0 173 48" fill="none" xmlns="http://www.w3.org/2000/svg">
<path d="M6 16.8C6 20.8014 8.17606 24.2945 11.4093 26.1605C11.4566 24.7954 11.6828 23.4757 12.0651 22.2242C10.5544 20.9044 9.6 18.9636 9.6 16.8C9.6 12.8235 12.8235 9.6 16.8 9.6C18.9636 9.6 20.9044 10.5544 22.2242 12.0651C23.4757 11.6828 24.7954 11.4566 26.1605 11.4093C24.2945 8.17606 20.8014 6 16.8 6C10.8353 6 6 10.8353 6 16.8Z" fill="white"/>
<path d="M16.8 27.6C22.7647 27.6 27.6 22.7647 27.6 16.8C27.6 16.1951 27.5503 15.6018 27.4547 15.0239C27.2052 15.0081 26.9535 15 26.7 15C25.7183 15 24.7648 15.1209 23.8537 15.3486C23.9496 15.8174 24 16.3028 24 16.8C24 20.7765 20.7765 24 16.8 24C16.3028 24 15.8174 23.9496 15.3486 23.8537C15.1209 24.7648 15 25.7183 15 26.7C15 26.9535 15.0081 27.2052 15.0239 27.4547C15.6018 27.5503 16.1951 27.6 16.8 27.6Z" fill="white"/>
<path d="M38.4 26.7C38.4 33.1617 33.1617 38.4 26.7 38.4C20.4918 38.4 15.4129 33.5647 15.0239 27.4547C13.7264 27.24 12.507 26.794 11.4093 26.1605C11.4031 26.3396 11.4 26.5194 11.4 26.7C11.4 35.15 18.25 42 26.7 42C35.15 42 42 35.15 42 26.7C42 18.25 35.15 11.4 26.7 11.4C26.5194 11.4 26.3396 11.4031 26.1605 11.4093C26.794 12.507 27.24 13.7264 27.4547 15.0239C33.5647 15.4129 38.4 20.4918 38.4 26.7Z" fill="white"/>
<path d="M22.2242 12.0651C17.3736 13.5467 13.5467 17.3736 12.0651 22.2242C12.9837 23.0268 14.1081 23.5997 15.3486 23.8537C16.3922 19.6787 19.6787 16.3922 23.8537 15.3486C23.5997 14.1081 23.0268 12.9837 22.2242 12.0651Z" fill="white"/>
<path d="M56 14L55 15V21H66V26H55V40H50V12L54 8H68V14H56Z" fill="white"/>
<path d="M70 15V11H74V15H70ZM70 40V18H74V40H70Z" fill="white"/>
<path d="M91 40H76V36H90L91 35V32L90 31.0002H79L76 28V22L80 18H94V22H82.0464L80 24V26L81 27H91.0464L95 31V36L91 40Z" fill="white"/>
<path d="M112 40H97V36H111L112 35V32L111 31.0002H100L97 28V22L101 18H115V22H103.046L101 24V26L102 27H112.046L116 31V36L112 40Z" fill="white"/>
<path d="M118 15V11H122V15H118ZM118 40V18H122V40H118Z" fill="white"/>
<path d="M140 40H128L124 36V22L128 18H140.092L144 22V36L140 40ZM140.092 24L139.092 23H129.092L128.092 24V34L129.185 35H139.092L140.092 34V24Z" fill="white"/>
<path d="M162 40L162 24.0045L161 23.0053L153 23.0048L151 24.0045L151 40L146 39.9995V18.0068H151V20.006L153 18L163 18.0068L167 21.999V40H162Z" fill="white"/>
</svg>
