<svg width="222" height="64" viewBox="0 0 222 64" fill="none" xmlns="http://www.w3.org/2000/svg">
<path d="M12 12.0001L10 14V26H32V36H10V64H0V8L8 0H36V12.0001H12Z" fill="white"/>
<path d="M40 14V6H48V14H40ZM40 64V20H48V64H40Z" fill="white"/>
<path d="M124 64H94V56H122L124 54V48L122 46.0004H100L94 40V28L102 20H130V28H106.093L102 32V36L104 38H124.093L132 46V56L124 64Z" fill="white"/>
<path d="M82 64H52V56H80L82 54V48L80 46.0004H58L52 40V28L60 20H88V28H64.0928L60 32V36L62 38H82.0928L90 46V56L82 64Z" fill="white"/>
<path d="M168 64H144L136 56V28L144 20H168.185L176 28V56L168 64ZM168.185 32L166.185 30H146.185L144.185 32V52L146.369 54H166.185L168.185 52V32Z" fill="white"/>
<path d="M212 64L212 32.009L210 30.0106L194 30.0096L190 32.009L190 64L180 63.999V20.0137H190V24.0119L194 20L214 20.0137L222 27.998V64H212Z" fill="white"/>
</svg>
